<?xml version="1.0" encoding="utf-8"?>
<!-- Generator: Adobe Illustrator 19.1.0, SVG Export Plug-In . SVG Version: 6.00 Build 0)  -->
<svg version="1.1" xmlns="http://www.w3.org/2000/svg" xmlns:xlink="http://www.w3.org/1999/xlink" x="0px" y="0px" width="24px"
	 height="24px" viewBox="0 0 24 24" enable-background="new 0 0 24 24" xml:space="preserve">
<g id="Bounding_Boxes">
	<path fill="none" d="M0,0h24v24H0V0z"/>
</g>
<g id="Outline">
	<g id="ui_x5F_spec_x5F_header">
	</g>
	<g>
		<path d="M9,4c-4.42,0-8,3.58-8,8s3.58,8,8,8s8-3.58,8-8S13.42,4,9,4z M9,18c-3.31,0-6-2.69-6-6s2.69-6,6-6s6,2.69,6,6
			S12.31,18,9,18z"/>
		<path d="M17,4.26v2.09c2.33,0.82,4,3.04,4,5.65s-1.67,4.83-4,5.65v2.09c3.45-0.89,6-4.01,6-7.74C23,8.27,20.45,5.15,17,4.26z"/>
	</g>
</g>
</svg>
