<?xml version="1.0" encoding="utf-8"?>
<!-- Generator: Adobe Illustrator 22.0.1, SVG Export Plug-In . SVG Version: 6.00 Build 0)  -->
<svg version="1.1" id="Layer_1" xmlns="http://www.w3.org/2000/svg" xmlns:xlink="http://www.w3.org/1999/xlink" x="0px" y="0px"
	 viewBox="0 0 225.1 177.9" style="enable-background:new 0 0 225.1 177.9;" xml:space="preserve">
<style type="text/css">
	.st0{fill:url(#SVGID_1_);}
	.st1{fill:url(#SVGID_2_);}
	.st2{fill:url(#SVGID_3_);}
	.st3{opacity:0.63;}
	.st4{fill:none;stroke:#E5E5E5;stroke-miterlimit:10;}
</style>
<g>
	<g>
		<g>
			<path d="M38.6,144.5l-8,24.2h-4.8l-6-17.9l-6.1,17.9H9l-8-24.2h4.7l6,18.4l6.3-18.4H22l6.1,18.5l6.2-18.5H38.6z"/>
			<path d="M60.4,165v3.8H42.3v-24.2H60v3.8H46.8v6.3h11.7v3.7H46.8v6.7H60.4z"/>
			<path d="M70.4,148.3h-8v-3.8h20.5v3.8h-8v20.4h-4.5V148.3z"/>
			<path d="M90.6,167.5c-2-1.1-3.5-2.6-4.7-4.5c-1.1-1.9-1.7-4-1.7-6.4s0.6-4.5,1.7-6.4c1.1-1.9,2.7-3.4,4.7-4.5
				c2-1.1,4.2-1.6,6.7-1.6c2.5,0,4.7,0.5,6.7,1.6c2,1.1,3.5,2.6,4.7,4.4c1.1,1.9,1.7,4,1.7,6.4s-0.6,4.5-1.7,6.4
				c-1.1,1.9-2.7,3.4-4.7,4.4c-2,1.1-4.2,1.6-6.7,1.6C94.8,169.1,92.5,168.5,90.6,167.5z M101.6,164c1.3-0.7,2.3-1.7,3-3
				s1.1-2.8,1.1-4.4c0-1.6-0.4-3.1-1.1-4.4c-0.7-1.3-1.8-2.3-3-3c-1.3-0.7-2.7-1.1-4.4-1.1c-1.6,0-3.1,0.4-4.4,1.1
				c-1.3,0.7-2.3,1.7-3,3c-0.7,1.3-1.1,2.8-1.1,4.4c0,1.6,0.4,3.1,1.1,4.4c0.7,1.3,1.8,2.3,3,3c1.3,0.7,2.7,1.1,4.4,1.1
				C98.8,165.1,100.3,164.8,101.6,164z"/>
			<path d="M136.5,144.5v24.2h-3.7l-13.3-16.4v16.4H115v-24.2h3.7l13.3,16.4v-16.4H136.5z"/>
			<path d="M147.7,167.5c-2-1.1-3.5-2.6-4.7-4.5c-1.1-1.9-1.7-4-1.7-6.4s0.6-4.5,1.7-6.4c1.1-1.9,2.7-3.4,4.7-4.5
				c2-1.1,4.2-1.6,6.7-1.6c2.5,0,4.7,0.5,6.7,1.6c2,1.1,3.5,2.6,4.7,4.4c1.1,1.9,1.7,4,1.7,6.4s-0.6,4.5-1.7,6.4
				c-1.1,1.9-2.7,3.4-4.7,4.4c-2,1.1-4.2,1.6-6.7,1.6C151.9,169.1,149.7,168.5,147.7,167.5z M158.7,164c1.3-0.7,2.3-1.7,3-3
				s1.1-2.8,1.1-4.4c0-1.6-0.4-3.1-1.1-4.4c-0.7-1.3-1.8-2.3-3-3c-1.3-0.7-2.7-1.1-4.4-1.1c-1.6,0-3.1,0.4-4.4,1.1
				c-1.3,0.7-2.3,1.7-3,3c-0.7,1.3-1.1,2.8-1.1,4.4c0,1.6,0.4,3.1,1.1,4.4c0.7,1.3,1.8,2.3,3,3c1.3,0.7,2.7,1.1,4.4,1.1
				C156,165.1,157.4,164.8,158.7,164z"/>
			<path d="M194.4,168.7l0-16l-8,13.3h-2l-8-13.1v15.8h-4.3v-24.2h3.7l9.6,16l9.4-16h3.7l0,24.2H194.4z"/>
			<path d="M215.6,160.2v8.5h-4.5v-8.5l-9.5-15.7h4.8l7.1,11.8l7.2-11.8h4.4L215.6,160.2z"/>
		</g>
		<g>
			<g>
				<linearGradient id="SVGID_1_" gradientUnits="userSpaceOnUse" x1="91.3119" y1="95.8914" x2="137.1583" y2="15.4591">
					<stop  offset="0" style="stop-color:#01FAFF"/>
					<stop  offset="1" style="stop-color:#3066FF"/>
				</linearGradient>
				<path class="st0" d="M112.5,109.7l-1.8-0.8c-0.4-0.2-9.5-4.4-18.9-10.3C71.5,85.8,71.5,78.4,71.5,75.9V39.1l40.9-23.6l40.9,23.6
					v36.8c0,3.9-2.1,10.4-20.3,22.1c-9.3,6-18.4,10.6-18.8,10.8L112.5,109.7z M79.6,43.8v32.2c0,0.9,0.8,5.9,16.5,15.9
					c6.6,4.1,13.2,7.5,16.2,9c3.1-1.6,9.7-5.2,16.3-9.5c16.1-10.4,16.5-14.9,16.5-15.3V43.8l-32.8-18.9L79.6,43.8z"/>
			</g>
			<g>
				<linearGradient id="SVGID_2_" gradientUnits="userSpaceOnUse" x1="77.2823" y1="89.8047" x2="124.3065" y2="7.3061">
					<stop  offset="0" style="stop-color:#01FAFF"/>
					<stop  offset="1" style="stop-color:#3066FF"/>
				</linearGradient>
				<polygon class="st1" points="103.1,74.8 95.1,69 95.1,28.3 103.1,28.3 				"/>
			</g>
			<g>
				<linearGradient id="SVGID_3_" gradientUnits="userSpaceOnUse" x1="93.6908" y1="100.3297" x2="141.142" y2="17.0822">
					<stop  offset="0" style="stop-color:#01FAFF"/>
					<stop  offset="1" style="stop-color:#3066FF"/>
				</linearGradient>
				<polygon class="st2" points="127.2,69 119.1,74.8 119.1,28.3 127.2,28.3 				"/>
			</g>
		</g>
	</g>
	<g class="st3">
		<polyline class="st4" points="59.4,31.2 112.5,62.8 165.6,31.2 		"/>
		<polygon class="st4" points="59.4,31.2 59.4,92.5 112.5,123.2 165.6,92.5 165.6,31.2 112.5,0.6 		"/>
		<line class="st4" x1="112.5" y1="62.8" x2="112.5" y2="123.2"/>
	</g>
</g>
</svg>
